# xmcd
#
# Track frame offsets: 
#        150
#        14898
#        29021
#        46412
#        59698
#        77587
#        90611
#        103007
#        119243
#        134477
#        148405
#        166896
#        177687
#        191173
#        205204
#        220011
#        233950
#        248639
#        265612
#        282891
#        297242
#
# Disc length: 4212 seconds
#
# Revision: 0
# Processed by: cddbd v1.5.2PL0 Copyright (c) Steve Scherf et al.
# Submitted via: ExactAudioCopy v0.95b4
#
DISCID=52107215
DTITLE=Various Artist - Siempre Te Amare Vol.7
DYEAR=2000
DGENRE=Ballad
TTITLE0=Duo Dinamico - Perdoname
TTITLE1=Formula V - Solo sin ti
TTITLE2=Los Golpes - Vete ya
TTITLE3=Roberto Jordán - Rosa marchita
TTITLE4=Elio Roca - Contigo y aqui
TTITLE5=Heleno - La chica de la Boutique
TTITLE6=Los Cuatro Soles - Nunca más podré olvidarte
TTITLE7=Los Terricolas - Lloraras
TTITLE8=Los Payos - Compasión
TTITLE9=Yaco Monti - Vanidad
TTITLE10=Hnos. Arriagada - Nathalie
TTITLE11=Sabú - Mon amour mi bien ma femme
TTITLE12=Marthina - Hoy daría yo la vida
TTITLE13=Los Prados - Como no voy a quererte
TTITLE14=Los Gritos - La vida sigue igual
TTITLE15=Los Mustang - San Francisco
TTITLE16=Valen - Quiero Amarte
TTITLE17=Los Galos - Como deseo ser tu amor
TTITLE18=Silvana Di Lorenzo - Me muero por estar contigo
TTITLE19=Danny - Soy tu enamorado
TTITLE20=Mari Trini - Ayúdala
EXTD=
EXTT0=
EXTT1=
EXTT2=
EXTT3=
EXTT4=
EXTT5=
EXTT6=
EXTT7=
EXTT8=
EXTT9=
EXTT10=
EXTT11=
EXTT12=
EXTT13=
EXTT14=
EXTT15=
EXTT16=
EXTT17=
EXTT18=
EXTT19=
EXTT20=
PLAYORDER=
